<mxfile host="Electron" modified="2024-03-13T12:44:29.586Z" agent="Mozilla/5.0 (Windows NT 10.0; Win64; x64) AppleWebKit/537.36 (KHTML, like Gecko) draw.io/24.0.4 Chrome/120.0.6099.109 Electron/28.1.0 Safari/537.36" etag="eCF57gZaldfx_lpIUSlD" version="24.0.4" type="device">
  <diagram name="Strona-1" id="wR0N-3_GXUcjeD7JFUU1">
    <mxGraphModel dx="1050" dy="638" grid="1" gridSize="10" guides="1" tooltips="1" connect="1" arrows="1" fold="1" page="1" pageScale="1" pageWidth="827" pageHeight="1169" math="0" shadow="0">
      <root>
        <mxCell id="0" />
        <mxCell id="1" parent="0" />
        <mxCell id="ewvP3wC_7j1jmrWXz1Fn-9" value="" style="edgeStyle=orthogonalEdgeStyle;rounded=0;orthogonalLoop=1;jettySize=auto;html=1;" parent="1" source="ewvP3wC_7j1jmrWXz1Fn-1" target="ewvP3wC_7j1jmrWXz1Fn-8" edge="1">
          <mxGeometry relative="1" as="geometry" />
        </mxCell>
        <mxCell id="ewvP3wC_7j1jmrWXz1Fn-1" value="START" style="strokeWidth=2;html=1;shape=mxgraph.flowchart.start_1;whiteSpace=wrap;" parent="1" vertex="1">
          <mxGeometry x="380" y="170" width="100" height="60" as="geometry" />
        </mxCell>
        <mxCell id="ewvP3wC_7j1jmrWXz1Fn-11" value="" style="edgeStyle=orthogonalEdgeStyle;rounded=0;orthogonalLoop=1;jettySize=auto;html=1;" parent="1" source="ewvP3wC_7j1jmrWXz1Fn-8" target="ewvP3wC_7j1jmrWXz1Fn-10" edge="1">
          <mxGeometry relative="1" as="geometry" />
        </mxCell>
        <mxCell id="ewvP3wC_7j1jmrWXz1Fn-8" value="Initialize handlers and simulation state" style="whiteSpace=wrap;html=1;strokeWidth=2;" parent="1" vertex="1">
          <mxGeometry x="370" y="260" width="120" height="60" as="geometry" />
        </mxCell>
        <mxCell id="ewvP3wC_7j1jmrWXz1Fn-13" value="" style="edgeStyle=orthogonalEdgeStyle;rounded=0;orthogonalLoop=1;jettySize=auto;html=1;" parent="1" source="ewvP3wC_7j1jmrWXz1Fn-10" target="ewvP3wC_7j1jmrWXz1Fn-12" edge="1">
          <mxGeometry relative="1" as="geometry" />
        </mxCell>
        <mxCell id="ewvP3wC_7j1jmrWXz1Fn-29" style="edgeStyle=orthogonalEdgeStyle;rounded=0;orthogonalLoop=1;jettySize=auto;html=1;exitX=0;exitY=0.5;exitDx=0;exitDy=0;entryX=0.5;entryY=0;entryDx=0;entryDy=0;entryPerimeter=0;" parent="1" source="ewvP3wC_7j1jmrWXz1Fn-10" target="ewvP3wC_7j1jmrWXz1Fn-30" edge="1">
          <mxGeometry relative="1" as="geometry">
            <mxPoint x="250" y="460" as="targetPoint" />
          </mxGeometry>
        </mxCell>
        <mxCell id="ewvP3wC_7j1jmrWXz1Fn-10" value="time &amp;lt; duration" style="rhombus;whiteSpace=wrap;html=1;strokeWidth=2;" parent="1" vertex="1">
          <mxGeometry x="390" y="350" width="80" height="80" as="geometry" />
        </mxCell>
        <mxCell id="ewvP3wC_7j1jmrWXz1Fn-15" value="" style="edgeStyle=orthogonalEdgeStyle;rounded=0;orthogonalLoop=1;jettySize=auto;html=1;" parent="1" source="ewvP3wC_7j1jmrWXz1Fn-12" target="ewvP3wC_7j1jmrWXz1Fn-14" edge="1">
          <mxGeometry relative="1" as="geometry" />
        </mxCell>
        <mxCell id="ewvP3wC_7j1jmrWXz1Fn-12" value="Update lambda" style="whiteSpace=wrap;html=1;strokeWidth=2;" parent="1" vertex="1">
          <mxGeometry x="370" y="460" width="120" height="60" as="geometry" />
        </mxCell>
        <mxCell id="ewvP3wC_7j1jmrWXz1Fn-17" value="" style="edgeStyle=orthogonalEdgeStyle;rounded=0;orthogonalLoop=1;jettySize=auto;html=1;" parent="1" source="ewvP3wC_7j1jmrWXz1Fn-14" target="ewvP3wC_7j1jmrWXz1Fn-16" edge="1">
          <mxGeometry relative="1" as="geometry" />
        </mxCell>
        <mxCell id="ewvP3wC_7j1jmrWXz1Fn-14" value="Select next event&lt;br&gt;Update time" style="whiteSpace=wrap;html=1;strokeWidth=2;" parent="1" vertex="1">
          <mxGeometry x="370" y="550" width="120" height="60" as="geometry" />
        </mxCell>
        <mxCell id="ewvP3wC_7j1jmrWXz1Fn-19" value="" style="edgeStyle=orthogonalEdgeStyle;rounded=0;orthogonalLoop=1;jettySize=auto;html=1;" parent="1" source="ewvP3wC_7j1jmrWXz1Fn-16" target="ewvP3wC_7j1jmrWXz1Fn-18" edge="1">
          <mxGeometry relative="1" as="geometry" />
        </mxCell>
        <mxCell id="ewvP3wC_7j1jmrWXz1Fn-16" value="Execute next event" style="whiteSpace=wrap;html=1;strokeWidth=2;" parent="1" vertex="1">
          <mxGeometry x="370" y="640" width="120" height="60" as="geometry" />
        </mxCell>
        <mxCell id="ewvP3wC_7j1jmrWXz1Fn-22" value="" style="edgeStyle=orthogonalEdgeStyle;rounded=0;orthogonalLoop=1;jettySize=auto;html=1;" parent="1" source="ewvP3wC_7j1jmrWXz1Fn-18" target="ewvP3wC_7j1jmrWXz1Fn-21" edge="1">
          <mxGeometry relative="1" as="geometry" />
        </mxCell>
        <mxCell id="ewvP3wC_7j1jmrWXz1Fn-25" value="" style="edgeStyle=orthogonalEdgeStyle;rounded=0;orthogonalLoop=1;jettySize=auto;html=1;" parent="1" source="ewvP3wC_7j1jmrWXz1Fn-18" target="ewvP3wC_7j1jmrWXz1Fn-24" edge="1">
          <mxGeometry relative="1" as="geometry" />
        </mxCell>
        <mxCell id="ewvP3wC_7j1jmrWXz1Fn-18" value="Event&lt;br&gt;returned User" style="rhombus;whiteSpace=wrap;html=1;strokeWidth=2;fontSize=12;horizontal=1;spacingTop=-10;" parent="1" vertex="1">
          <mxGeometry x="380" y="720" width="100" height="100" as="geometry" />
        </mxCell>
        <mxCell id="ewvP3wC_7j1jmrWXz1Fn-20" value="Yes" style="text;html=1;align=center;verticalAlign=middle;resizable=0;points=[];autosize=1;strokeColor=none;fillColor=none;" parent="1" vertex="1">
          <mxGeometry x="426" y="425" width="40" height="30" as="geometry" />
        </mxCell>
        <mxCell id="ewvP3wC_7j1jmrWXz1Fn-27" style="edgeStyle=orthogonalEdgeStyle;rounded=0;orthogonalLoop=1;jettySize=auto;html=1;exitX=0.5;exitY=1;exitDx=0;exitDy=0;" parent="1" source="ewvP3wC_7j1jmrWXz1Fn-21" edge="1">
          <mxGeometry relative="1" as="geometry">
            <mxPoint x="430" y="830" as="targetPoint" />
            <Array as="points">
              <mxPoint x="580" y="830" />
            </Array>
          </mxGeometry>
        </mxCell>
        <mxCell id="ewvP3wC_7j1jmrWXz1Fn-21" value="Redirect to another station" style="whiteSpace=wrap;html=1;strokeWidth=2;spacingTop=0;" parent="1" vertex="1">
          <mxGeometry x="520" y="740" width="120" height="60" as="geometry" />
        </mxCell>
        <mxCell id="ewvP3wC_7j1jmrWXz1Fn-28" style="edgeStyle=orthogonalEdgeStyle;rounded=0;orthogonalLoop=1;jettySize=auto;html=1;exitX=1;exitY=0.5;exitDx=0;exitDy=0;" parent="1" source="ewvP3wC_7j1jmrWXz1Fn-24" edge="1">
          <mxGeometry relative="1" as="geometry">
            <mxPoint x="430" y="335" as="targetPoint" />
            <Array as="points">
              <mxPoint x="660" y="890" />
              <mxPoint x="660" y="335" />
            </Array>
          </mxGeometry>
        </mxCell>
        <mxCell id="ewvP3wC_7j1jmrWXz1Fn-24" value="Check for power-down/up" style="whiteSpace=wrap;html=1;strokeWidth=2;spacingTop=0;" parent="1" vertex="1">
          <mxGeometry x="370" y="860" width="120" height="60" as="geometry" />
        </mxCell>
        <mxCell id="ewvP3wC_7j1jmrWXz1Fn-30" value="STOP" style="strokeWidth=2;html=1;shape=mxgraph.flowchart.start_1;whiteSpace=wrap;" parent="1" vertex="1">
          <mxGeometry x="200" y="455" width="100" height="60" as="geometry" />
        </mxCell>
        <mxCell id="ewvP3wC_7j1jmrWXz1Fn-31" value="No" style="text;html=1;align=center;verticalAlign=middle;resizable=0;points=[];autosize=1;strokeColor=none;fillColor=none;" parent="1" vertex="1">
          <mxGeometry x="345" y="366" width="40" height="30" as="geometry" />
        </mxCell>
        <mxCell id="ewvP3wC_7j1jmrWXz1Fn-32" value="Yes" style="text;html=1;align=center;verticalAlign=middle;resizable=0;points=[];autosize=1;strokeColor=none;fillColor=none;" parent="1" vertex="1">
          <mxGeometry x="474" y="746" width="40" height="30" as="geometry" />
        </mxCell>
        <mxCell id="ewvP3wC_7j1jmrWXz1Fn-33" value="No" style="text;html=1;align=center;verticalAlign=middle;resizable=0;points=[];autosize=1;strokeColor=none;fillColor=none;" parent="1" vertex="1">
          <mxGeometry x="393" y="820" width="40" height="30" as="geometry" />
        </mxCell>
        <mxCell id="ewvP3wC_7j1jmrWXz1Fn-38" value="" style="edgeStyle=orthogonalEdgeStyle;rounded=0;orthogonalLoop=1;jettySize=auto;html=1;" parent="1" source="ewvP3wC_7j1jmrWXz1Fn-34" target="ewvP3wC_7j1jmrWXz1Fn-37" edge="1">
          <mxGeometry relative="1" as="geometry" />
        </mxCell>
        <mxCell id="ewvP3wC_7j1jmrWXz1Fn-34" value="START" style="strokeWidth=2;html=1;shape=mxgraph.flowchart.start_1;whiteSpace=wrap;" parent="1" vertex="1">
          <mxGeometry x="1220" y="220" width="100" height="60" as="geometry" />
        </mxCell>
        <mxCell id="ewvP3wC_7j1jmrWXz1Fn-35" value="Main Loop" style="text;html=1;strokeColor=none;fillColor=none;align=center;verticalAlign=middle;whiteSpace=wrap;rounded=0;" parent="1" vertex="1">
          <mxGeometry x="400" y="120" width="60" height="30" as="geometry" />
        </mxCell>
        <mxCell id="ewvP3wC_7j1jmrWXz1Fn-36" value="Station Events" style="text;html=1;strokeColor=none;fillColor=none;align=center;verticalAlign=middle;whiteSpace=wrap;rounded=0;" parent="1" vertex="1">
          <mxGeometry x="1225" y="180" width="90" height="30" as="geometry" />
        </mxCell>
        <mxCell id="ewvP3wC_7j1jmrWXz1Fn-57" value="" style="edgeStyle=orthogonalEdgeStyle;rounded=0;orthogonalLoop=1;jettySize=auto;html=1;" parent="1" source="ewvP3wC_7j1jmrWXz1Fn-37" target="ewvP3wC_7j1jmrWXz1Fn-56" edge="1">
          <mxGeometry relative="1" as="geometry" />
        </mxCell>
        <mxCell id="ewvP3wC_7j1jmrWXz1Fn-69" style="edgeStyle=orthogonalEdgeStyle;rounded=0;orthogonalLoop=1;jettySize=auto;html=1;exitX=1;exitY=0.5;exitDx=0;exitDy=0;entryX=0.5;entryY=0;entryDx=0;entryDy=0;" parent="1" source="ewvP3wC_7j1jmrWXz1Fn-37" target="ewvP3wC_7j1jmrWXz1Fn-67" edge="1">
          <mxGeometry relative="1" as="geometry" />
        </mxCell>
        <mxCell id="ewvP3wC_7j1jmrWXz1Fn-37" value="Event type" style="rhombus;whiteSpace=wrap;html=1;strokeWidth=2;" parent="1" vertex="1">
          <mxGeometry x="1230" y="310" width="80" height="80" as="geometry" />
        </mxCell>
        <mxCell id="ewvP3wC_7j1jmrWXz1Fn-45" value="" style="edgeStyle=orthogonalEdgeStyle;rounded=0;orthogonalLoop=1;jettySize=auto;html=1;" parent="1" source="ewvP3wC_7j1jmrWXz1Fn-41" target="ewvP3wC_7j1jmrWXz1Fn-44" edge="1">
          <mxGeometry relative="1" as="geometry" />
        </mxCell>
        <mxCell id="ewvP3wC_7j1jmrWXz1Fn-41" value="Heap full?" style="rhombus;whiteSpace=wrap;html=1;strokeWidth=2;" parent="1" vertex="1">
          <mxGeometry x="1050" y="600" width="80" height="80" as="geometry" />
        </mxCell>
        <mxCell id="ewvP3wC_7j1jmrWXz1Fn-44" value="Add user to heap" style="whiteSpace=wrap;html=1;strokeWidth=2;" parent="1" vertex="1">
          <mxGeometry x="1030" y="720" width="120" height="60" as="geometry" />
        </mxCell>
        <mxCell id="ewvP3wC_7j1jmrWXz1Fn-46" value="" style="edgeStyle=orthogonalEdgeStyle;rounded=0;orthogonalLoop=1;jettySize=auto;html=1;entryX=0.5;entryY=0;entryDx=0;entryDy=0;" parent="1" source="ewvP3wC_7j1jmrWXz1Fn-37" target="ewvP3wC_7j1jmrWXz1Fn-48" edge="1">
          <mxGeometry relative="1" as="geometry">
            <mxPoint x="1230" y="350" as="sourcePoint" />
            <mxPoint x="1080" y="450" as="targetPoint" />
          </mxGeometry>
        </mxCell>
        <mxCell id="ewvP3wC_7j1jmrWXz1Fn-47" value="AddUser" style="edgeLabel;html=1;align=center;verticalAlign=middle;resizable=0;points=[];" parent="ewvP3wC_7j1jmrWXz1Fn-46" vertex="1" connectable="0">
          <mxGeometry x="-0.4718" y="-1" relative="1" as="geometry">
            <mxPoint x="4" y="1" as="offset" />
          </mxGeometry>
        </mxCell>
        <mxCell id="ewvP3wC_7j1jmrWXz1Fn-74" style="edgeStyle=orthogonalEdgeStyle;rounded=0;orthogonalLoop=1;jettySize=auto;html=1;exitX=0.5;exitY=1;exitDx=0;exitDy=0;entryX=0.5;entryY=0;entryDx=0;entryDy=0;" parent="1" source="ewvP3wC_7j1jmrWXz1Fn-48" target="ewvP3wC_7j1jmrWXz1Fn-73" edge="1">
          <mxGeometry relative="1" as="geometry" />
        </mxCell>
        <mxCell id="ewvP3wC_7j1jmrWXz1Fn-48" value="Generate new user and timestamp for next one" style="rounded=0;whiteSpace=wrap;html=1;strokeWidth=2;" parent="1" vertex="1">
          <mxGeometry x="1033.75" y="390" width="112.5" height="60" as="geometry" />
        </mxCell>
        <mxCell id="ewvP3wC_7j1jmrWXz1Fn-49" value="Return None" style="strokeWidth=2;html=1;shape=mxgraph.flowchart.start_1;whiteSpace=wrap;" parent="1" vertex="1">
          <mxGeometry x="1040" y="830" width="100" height="60" as="geometry" />
        </mxCell>
        <mxCell id="ewvP3wC_7j1jmrWXz1Fn-50" style="edgeStyle=orthogonalEdgeStyle;rounded=0;orthogonalLoop=1;jettySize=auto;html=1;exitX=0.5;exitY=1;exitDx=0;exitDy=0;entryX=0.5;entryY=0;entryDx=0;entryDy=0;entryPerimeter=0;" parent="1" source="ewvP3wC_7j1jmrWXz1Fn-44" target="ewvP3wC_7j1jmrWXz1Fn-49" edge="1">
          <mxGeometry relative="1" as="geometry" />
        </mxCell>
        <mxCell id="ewvP3wC_7j1jmrWXz1Fn-51" value="Return user" style="strokeWidth=2;html=1;shape=mxgraph.flowchart.start_1;whiteSpace=wrap;" parent="1" vertex="1">
          <mxGeometry x="920" y="670" width="100" height="60" as="geometry" />
        </mxCell>
        <mxCell id="ewvP3wC_7j1jmrWXz1Fn-53" style="edgeStyle=orthogonalEdgeStyle;rounded=0;orthogonalLoop=1;jettySize=auto;html=1;exitX=0;exitY=0.5;exitDx=0;exitDy=0;entryX=0.5;entryY=0;entryDx=0;entryDy=0;entryPerimeter=0;" parent="1" source="ewvP3wC_7j1jmrWXz1Fn-41" target="ewvP3wC_7j1jmrWXz1Fn-51" edge="1">
          <mxGeometry relative="1" as="geometry" />
        </mxCell>
        <mxCell id="ewvP3wC_7j1jmrWXz1Fn-54" value="Yes" style="text;html=1;align=center;verticalAlign=middle;resizable=0;points=[];autosize=1;strokeColor=none;fillColor=none;" parent="1" vertex="1">
          <mxGeometry x="1002" y="616" width="40" height="30" as="geometry" />
        </mxCell>
        <mxCell id="ewvP3wC_7j1jmrWXz1Fn-55" value="No" style="text;html=1;align=center;verticalAlign=middle;resizable=0;points=[];autosize=1;strokeColor=none;fillColor=none;" parent="1" vertex="1">
          <mxGeometry x="1083" y="681" width="40" height="30" as="geometry" />
        </mxCell>
        <mxCell id="ewvP3wC_7j1jmrWXz1Fn-62" value="" style="edgeStyle=orthogonalEdgeStyle;rounded=0;orthogonalLoop=1;jettySize=auto;html=1;" parent="1" source="ewvP3wC_7j1jmrWXz1Fn-56" target="ewvP3wC_7j1jmrWXz1Fn-61" edge="1">
          <mxGeometry relative="1" as="geometry" />
        </mxCell>
        <mxCell id="ewvP3wC_7j1jmrWXz1Fn-56" value="Heap empty" style="rhombus;whiteSpace=wrap;html=1;strokeWidth=2;" parent="1" vertex="1">
          <mxGeometry x="1230" y="475" width="80" height="80" as="geometry" />
        </mxCell>
        <mxCell id="ewvP3wC_7j1jmrWXz1Fn-58" value="Panic" style="strokeWidth=2;html=1;shape=mxgraph.flowchart.start_1;whiteSpace=wrap;" parent="1" vertex="1">
          <mxGeometry x="1340" y="536" width="73.33" height="44" as="geometry" />
        </mxCell>
        <mxCell id="ewvP3wC_7j1jmrWXz1Fn-59" style="edgeStyle=orthogonalEdgeStyle;rounded=0;orthogonalLoop=1;jettySize=auto;html=1;exitX=1;exitY=0.5;exitDx=0;exitDy=0;entryX=0.5;entryY=0;entryDx=0;entryDy=0;entryPerimeter=0;" parent="1" source="ewvP3wC_7j1jmrWXz1Fn-56" target="ewvP3wC_7j1jmrWXz1Fn-58" edge="1">
          <mxGeometry relative="1" as="geometry" />
        </mxCell>
        <mxCell id="ewvP3wC_7j1jmrWXz1Fn-60" value="Yes" style="text;html=1;align=center;verticalAlign=middle;resizable=0;points=[];autosize=1;strokeColor=none;fillColor=none;" parent="1" vertex="1">
          <mxGeometry x="1310" y="490" width="40" height="30" as="geometry" />
        </mxCell>
        <mxCell id="ewvP3wC_7j1jmrWXz1Fn-79" style="edgeStyle=orthogonalEdgeStyle;rounded=0;orthogonalLoop=1;jettySize=auto;html=1;exitX=0.5;exitY=1;exitDx=0;exitDy=0;" parent="1" source="ewvP3wC_7j1jmrWXz1Fn-61" edge="1">
          <mxGeometry relative="1" as="geometry">
            <mxPoint x="1090" y="810" as="targetPoint" />
            <Array as="points">
              <mxPoint x="1270" y="810" />
            </Array>
          </mxGeometry>
        </mxCell>
        <mxCell id="ewvP3wC_7j1jmrWXz1Fn-61" value="Release all users with timestamp ~ time" style="whiteSpace=wrap;html=1;strokeWidth=2;" parent="1" vertex="1">
          <mxGeometry x="1205" y="600" width="130" height="60" as="geometry" />
        </mxCell>
        <mxCell id="ewvP3wC_7j1jmrWXz1Fn-66" value="ReleaseUser" style="edgeLabel;html=1;align=center;verticalAlign=middle;resizable=0;points=[];" parent="1" vertex="1" connectable="0">
          <mxGeometry x="1269.0014285714287" y="411" as="geometry" />
        </mxCell>
        <mxCell id="ewvP3wC_7j1jmrWXz1Fn-80" style="edgeStyle=orthogonalEdgeStyle;rounded=0;orthogonalLoop=1;jettySize=auto;html=1;exitX=0.5;exitY=1;exitDx=0;exitDy=0;" parent="1" source="ewvP3wC_7j1jmrWXz1Fn-67" edge="1">
          <mxGeometry relative="1" as="geometry">
            <mxPoint x="1270" y="810" as="targetPoint" />
            <Array as="points">
              <mxPoint x="1500" y="810" />
              <mxPoint x="1286" y="810" />
            </Array>
          </mxGeometry>
        </mxCell>
        <mxCell id="ewvP3wC_7j1jmrWXz1Fn-67" value="state = Active/Sleep" style="whiteSpace=wrap;html=1;strokeWidth=2;" parent="1" vertex="1">
          <mxGeometry x="1440" y="390" width="120" height="60" as="geometry" />
        </mxCell>
        <mxCell id="ewvP3wC_7j1jmrWXz1Fn-70" value="PowerUp/ShutDown" style="edgeLabel;html=1;align=center;verticalAlign=middle;resizable=0;points=[];" parent="1" vertex="1" connectable="0">
          <mxGeometry x="1376.6682758620689" y="350.0044827586207" as="geometry" />
        </mxCell>
        <mxCell id="ewvP3wC_7j1jmrWXz1Fn-71" value="No" style="text;html=1;align=center;verticalAlign=middle;resizable=0;points=[];autosize=1;strokeColor=none;fillColor=none;" parent="1" vertex="1">
          <mxGeometry x="1263" y="555" width="40" height="30" as="geometry" />
        </mxCell>
        <mxCell id="ewvP3wC_7j1jmrWXz1Fn-75" style="edgeStyle=orthogonalEdgeStyle;rounded=0;orthogonalLoop=1;jettySize=auto;html=1;exitX=0.5;exitY=1;exitDx=0;exitDy=0;entryX=0.5;entryY=0;entryDx=0;entryDy=0;" parent="1" source="ewvP3wC_7j1jmrWXz1Fn-73" target="ewvP3wC_7j1jmrWXz1Fn-41" edge="1">
          <mxGeometry relative="1" as="geometry" />
        </mxCell>
        <mxCell id="ewvP3wC_7j1jmrWXz1Fn-77" style="edgeStyle=orthogonalEdgeStyle;rounded=0;orthogonalLoop=1;jettySize=auto;html=1;exitX=0;exitY=0.5;exitDx=0;exitDy=0;" parent="1" source="ewvP3wC_7j1jmrWXz1Fn-73" edge="1">
          <mxGeometry relative="1" as="geometry">
            <mxPoint x="970" y="640" as="targetPoint" />
          </mxGeometry>
        </mxCell>
        <mxCell id="ewvP3wC_7j1jmrWXz1Fn-73" value="State = Active" style="rhombus;whiteSpace=wrap;html=1;strokeWidth=2;" parent="1" vertex="1">
          <mxGeometry x="1045" y="470" width="90" height="90" as="geometry" />
        </mxCell>
        <mxCell id="ewvP3wC_7j1jmrWXz1Fn-76" value="Yes" style="text;html=1;align=center;verticalAlign=middle;resizable=0;points=[];autosize=1;strokeColor=none;fillColor=none;" parent="1" vertex="1">
          <mxGeometry x="1085" y="563" width="40" height="30" as="geometry" />
        </mxCell>
        <mxCell id="ewvP3wC_7j1jmrWXz1Fn-78" value="No" style="text;html=1;align=center;verticalAlign=middle;resizable=0;points=[];autosize=1;strokeColor=none;fillColor=none;" parent="1" vertex="1">
          <mxGeometry x="1004" y="491" width="40" height="30" as="geometry" />
        </mxCell>
        <mxCell id="BzDrufU8FCoc1-BbapJd-5" value="" style="edgeStyle=orthogonalEdgeStyle;rounded=0;orthogonalLoop=1;jettySize=auto;html=1;" parent="1" source="BzDrufU8FCoc1-BbapJd-2" target="BzDrufU8FCoc1-BbapJd-4" edge="1">
          <mxGeometry relative="1" as="geometry" />
        </mxCell>
        <mxCell id="BzDrufU8FCoc1-BbapJd-2" value="START" style="strokeWidth=2;html=1;shape=mxgraph.flowchart.start_1;whiteSpace=wrap;" parent="1" vertex="1">
          <mxGeometry x="2068" y="210" width="100" height="60" as="geometry" />
        </mxCell>
        <mxCell id="BzDrufU8FCoc1-BbapJd-3" value="Station next event timestamp" style="text;html=1;strokeColor=none;fillColor=none;align=center;verticalAlign=middle;whiteSpace=wrap;rounded=0;" parent="1" vertex="1">
          <mxGeometry x="2061" y="170" width="107" height="30" as="geometry" />
        </mxCell>
        <mxCell id="BzDrufU8FCoc1-BbapJd-7" value="" style="edgeStyle=orthogonalEdgeStyle;rounded=0;orthogonalLoop=1;jettySize=auto;html=1;" parent="1" source="BzDrufU8FCoc1-BbapJd-4" target="BzDrufU8FCoc1-BbapJd-6" edge="1">
          <mxGeometry relative="1" as="geometry" />
        </mxCell>
        <mxCell id="BzDrufU8FCoc1-BbapJd-8" value="Active" style="edgeLabel;html=1;align=center;verticalAlign=middle;resizable=0;points=[];" parent="BzDrufU8FCoc1-BbapJd-7" vertex="1" connectable="0">
          <mxGeometry x="-0.3987" y="-1" relative="1" as="geometry">
            <mxPoint as="offset" />
          </mxGeometry>
        </mxCell>
        <mxCell id="BzDrufU8FCoc1-BbapJd-10" value="" style="edgeStyle=orthogonalEdgeStyle;rounded=0;orthogonalLoop=1;jettySize=auto;html=1;" parent="1" source="BzDrufU8FCoc1-BbapJd-4" target="BzDrufU8FCoc1-BbapJd-9" edge="1">
          <mxGeometry relative="1" as="geometry" />
        </mxCell>
        <mxCell id="BzDrufU8FCoc1-BbapJd-13" value="" style="edgeStyle=orthogonalEdgeStyle;rounded=0;orthogonalLoop=1;jettySize=auto;html=1;" parent="1" source="BzDrufU8FCoc1-BbapJd-4" target="BzDrufU8FCoc1-BbapJd-12" edge="1">
          <mxGeometry relative="1" as="geometry" />
        </mxCell>
        <mxCell id="BzDrufU8FCoc1-BbapJd-14" value="Power-up/down" style="edgeLabel;html=1;align=center;verticalAlign=middle;resizable=0;points=[];" parent="BzDrufU8FCoc1-BbapJd-13" vertex="1" connectable="0">
          <mxGeometry x="-0.4078" y="-2" relative="1" as="geometry">
            <mxPoint y="-2" as="offset" />
          </mxGeometry>
        </mxCell>
        <mxCell id="BzDrufU8FCoc1-BbapJd-4" value="State" style="rhombus;whiteSpace=wrap;html=1;strokeWidth=2;" parent="1" vertex="1">
          <mxGeometry x="2078" y="300" width="80" height="80" as="geometry" />
        </mxCell>
        <mxCell id="BzDrufU8FCoc1-BbapJd-6" value="Minimum from (heap.peek, add_next_user)" style="whiteSpace=wrap;html=1;strokeWidth=2;" parent="1" vertex="1">
          <mxGeometry x="1850" y="390" width="120" height="60" as="geometry" />
        </mxCell>
        <mxCell id="BzDrufU8FCoc1-BbapJd-9" value="return add_next_user timestamp" style="whiteSpace=wrap;html=1;strokeWidth=2;" parent="1" vertex="1">
          <mxGeometry x="2058" y="440" width="120" height="60" as="geometry" />
        </mxCell>
        <mxCell id="BzDrufU8FCoc1-BbapJd-11" value="Sleep" style="edgeLabel;html=1;align=center;verticalAlign=middle;resizable=0;points=[];" parent="1" vertex="1" connectable="0">
          <mxGeometry x="2115.995384615385" y="401" as="geometry" />
        </mxCell>
        <mxCell id="BzDrufU8FCoc1-BbapJd-12" value="Minimum from (add_next_user, power-up/down time)" style="whiteSpace=wrap;html=1;strokeWidth=2;" parent="1" vertex="1">
          <mxGeometry x="2260" y="390" width="120" height="60" as="geometry" />
        </mxCell>
      </root>
    </mxGraphModel>
  </diagram>
</mxfile>
